HIERARCHY
ROOT Hips
{
	OFFSET 0.00000 0.00000 0.00000
	CHANNELS 6 Xposition Yposition Zposition Yrotation Zrotation Xrotation 
	JOINT Lumbar
	{
		OFFSET 0 0 0
		CHANNELS 3 Zrotation Xrotation Yrotation
		JOINT Neck
		{
			OFFSET 0.00 0.2701 0.00
			CHANNELS 3 Zrotation Xrotation Yrotation
			End Site
			{
				OFFSET 0.00 0.1379 0.00
			}
		}
		JOINT RightShoulder
		{
			OFFSET 0.0119 0.2289 0.1181
			CHANNELS 3 Zrotation Xrotation Yrotation
			JOINT RightElbow
			{
				OFFSET 0.00 -0.1475 0.00
				CHANNELS 2 Zrotation Yrotation
				JOINT RightWrist
				{
					OFFSET 0.00 -0.1605 0.00
					CHANNELS 2 Zrotation Xrotation
					End Site
					{
						OFFSET 0.0040 -0.1068 0.0006
					}
				}
			}
		}
		JOINT LeftShoulder
		{
			OFFSET 0.0119 0.2289 -0.1181
			CHANNELS 3 Zrotation Xrotation Yrotation
			JOINT LeftElbow
			{
				OFFSET 0.00 -0.1475 0.00
				CHANNELS 2 Zrotation Yrotation
				JOINT LeftWrist
				{
					OFFSET 0.00 -0.1605 0.00
					CHANNELS 2 Zrotation Xrotation
					End Site
					{
						OFFSET 0.0040 -0.1068 -0.0006
					}
				}
			}
		}
	}
	JOINT RightHip
	{
		OFFSET 0.0316 -0.0424 0.0458
		CHANNELS 3 Zrotation Xrotation Yrotation
		JOINT RightKnee
		{
			OFFSET 0.00 -0.2438 0.00
			CHANNELS 1 Zrotation
			JOINT RightAnkle
			{
				OFFSET 0.00 -0.2449 0.00
				CHANNELS 3 Zrotation Xrotation Yrotation
				End Site
				{
					OFFSET 0.1237 -0.0542 0.0051
				}
			}
		}
	}
	JOINT LeftHip
	{
		OFFSET 0.0316 -0.0424 -0.0458
		CHANNELS 3 Zrotation Xrotation Yrotation
		JOINT LeftKnee
		{
			OFFSET 0.00 -0.2438 0.00
			CHANNELS 1 Zrotation
			JOINT LeftAnkle
			{
				OFFSET 0.00 -0.2449 0.00
				CHANNELS 3 Zrotation Xrotation Yrotation
				End Site
				{
					OFFSET 0.1237 -0.0542 -0.0051
				}
			}
		}
	}
}
MOTION
Frames: 34
Frame Time: 0.02
2.06611 0.58806 0.60296 752.11365 0 -0.81924 6.04647 1.37065 5.06693 -19.30257 8.5702 11.50006 71.03929 -29.20875 60.47794 125.20249 61.57348 17.87558 -7.636 5.2956 49.26507 65.25839 61.70454 -57.41556 -28.246 0.35072 29.45907 0.11659 7.38073 -56.80727 7.35478 -6.09373 -7.64345 0.06776 -12.99328 4.38595 -14.9599 6.77956 0.5625 -3.31735
2.07254 0.58806 0.59953 754.16436 0 -1.03069 5.77298 1.09258 4.03807 -18.66112 10.46934 11.99981 70.40913 -29.84459 60.9948 125.38568 59.58379 16.82106 -9.01887 4.21493 48.3412 65.14248 61.90202 -58.68606 -28.22788 0.54188 29.12356 0.64108 9.29001 -51.74798 7.8883 -5.95418 -7.05317 -0.73005 -12.90832 0.75515 -15.13409 7.17712 1.31922 -1.71554
2.07908 0.58772 0.59567 756.07602 0 -1.09506 5.48457 0.77325 3.60668 -17.98533 11.67457 12.36379 68.60493 -30.24871 61.68144 125.69672 60.0683 12.83312 -10.78428 4.41227 48.1314 63.72169 61.97134 -59.76622 -28.30124 0.70817 28.48814 0.91544 11.41099 -46.21745 8.49298 -5.77023 -6.4151 -1.55976 -12.85005 -2.12121 -15.37284 7.62513 2.24551 -0.47392
2.08558 0.58749 0.59195 758.03819 0 -1.22175 5.2112 0.47909 2.90288 -17.3317 13.20368 12.8007 67.38398 -30.78536 62.2509 125.92792 59.31366 10.50958 -12.27428 4.00867 47.53181 62.91973 62.10473 -60.96189 -28.32852 0.88954 27.99146 1.29132 13.38765 -40.97743 9.07007 -5.59571 -5.78658 -2.37741 -12.77749 -5.30162 -15.58202 8.05582 3.05739 0.89072
2.09202 0.58743 0.58849 760.06308 0 -1.3672 4.90208 0.15339 2.18519 -16.65047 14.73141 13.19882 65.99725 -31.22174 62.98544 126.24588 58.93308 6.89909 -14.18306 3.65297 47.17791 62.04387 62.21615 -62.0627 -28.38049 1.05977 27.46973 1.71495 15.56427 -35.36899 9.63433 -5.45683 -5.17921 -3.18174 -12.7139 -8.69177 -15.79793 8.46449 4.02803 2.44995
2.09864 0.58695 0.58437 761.91908 0 -1.43978 4.66575 -0.11429 1.64527 -16.02082 16.08087 13.6403 64.65696 -31.80267 63.4215 126.41787 58.41543 5.20082 -15.32161 3.5114 46.49544 61.00479 62.34329 -63.30157 -28.39717 1.24482 26.93491 1.98526 17.37673 -30.44767 10.23318 -5.23553 -4.52691 -4.02225 -12.6368 -11.44655 -16.01465 8.92917 4.70797 3.5104
2.10564 0.58538 0.57862 763.36508 0 -1.33546 4.61535 -0.2163 1.44745 -15.51393 17.14427 14.25679 63.7754 -32.8839 62.94744 126.12481 56.7653 9.8593 -14.14784 3.69906 44.70812 59.7562 62.52561 -65.01246 -28.3383 1.48443 26.43179 1.8409 18.11859 -27.36428 10.98899 -4.81685 -3.77884 -4.95698 -12.53006 -12.65155 -16.19957 9.54951 4.54239 3.26974
2.11283 0.58341 0.57221 764.64186 0 -1.16548 4.64217 -0.25672 1.41042 -15.06494 18.04059 14.91582 62.97083 -34.1086 62.17509 125.68628 54.93291 16.46736 -12.20265 4.05602 42.576 58.39664 62.72971 -66.85628 -28.23379 1.73773 25.92774 1.55984 18.48777 -25.02323 11.76355 -4.31636 -2.99042 -5.92597 -12.40573 -13.2332 -16.38727 10.22087 4.07875 2.538
2.12 0.58164 0.56605 765.97895 0 -1.0324 4.64568 -0.32219 1.30454 -14.60753 18.98557 15.54087 62.09228 -35.23721 61.56875 125.33503 53.29574 21.93369 -10.67167 4.30644 40.61765 57.13339 62.93796 -68.60814 -28.11893 1.97932 25.43129 1.37644 19.03871 -22.46419 12.47642 -3.84022 -2.21177 -6.87976 -12.28122 -14.08065 -16.58219 10.86146 3.75193 2.03597
2.12693 0.57979 0.56008 767.37666 0 -0.86218 4.59863 -0.40303 1.2032 -14.07364 20.02361 16.22613 61.32337 -36.48916 60.841 124.89964 51.27038 28.37012 -8.88717 4.71985 38.60197 55.63284 63.08868 -70.49099 -28.13222 2.24363 24.89867 1.03702 19.55158 -19.39384 13.41169 -3.40988 -1.45953 -7.83765 -12.19483 -14.97609 -16.73602 11.54028 3.42423 1.49573
2.13439 0.57801 0.55357 768.61564 0 -0.75843 4.67583 -0.43486 1.12054 -13.71298 20.83511 16.79409 60.37801 -37.52022 60.29157 124.60228 49.97621 33.29771 -7.44025 4.82477 36.62673 54.61558 63.35833 -72.12995 -27.8745 2.46378 24.43904 0.98998 20.04381 -17.55891 13.89298 -2.87363 -0.65285 -8.78895 -12.02112 -15.6336 -16.98483 12.14533 3.02671 0.92119
2.14327 0.57641 0.54577 769.40815 0 -0.83125 5.07303 -0.36177 1.06821 -13.81773 21.08055 17.05973 58.76739 -37.91586 60.32045 124.73039 50.75536 33.48879 -7.13513 3.9701 34.74292 54.97514 64.01803 -73.10537 -26.81098 2.56196 24.2343 1.81449 20.64178 -19.06049 13.06591 -1.99346 0.3743 -9.76047 -11.63838 -15.78249 -17.4156 12.57994 2.497 0.38828
2.15267 0.57489 0.53745 770.05748 0 -0.97843 5.59285 -0.23854 1.02285 -14.09393 21.10379 17.20032 57.00868 -38.08373 60.53627 125.0006 52.26117 32.11908 -7.19254 2.80571 32.92865 55.82688 64.78505 -73.82358 -25.4888 2.6147 24.09391 2.93378 21.21632 -21.7609 11.79018 -1.02239 1.44021 -10.71337 -11.16232 -15.71642 -17.95844 12.92845 1.90902 -0.16371
2.16182 0.57341 0.52932 770.80459 0 -1.10719 6.06014 -0.12781 0.9594 -14.29204 21.2198 17.37816 55.4322 -38.35052 60.65656 125.19884 53.41774 31.54839 -7.06576 1.81963 31.14646 56.4519 65.45935 -74.63281 -24.32935 2.68624 23.89179 3.89881 21.75495 -23.84676 10.75259 -0.14104 2.43473 -11.6464 -10.71152 -15.75698 -18.49923 13.28778 1.35458 -0.71558
2.17105 0.57163 0.52135 771.40444 0 -1.16794 6.51915 -0.05783 0.96472 -14.49626 21.36376 17.64104 53.38624 -38.64096 60.80928 125.42153 54.65606 30.69363 -6.98607 0.67961 29.08007 57.09179 66.31887 -75.55639 -22.97692 2.7662 23.82981 4.94334 22.48173 -26.25842 9.57172 0.94452 3.65506 -12.70812 -10.33546 -15.74356 -18.82535 13.7738 0.75896 -1.24781
2.18023 0.57048 0.51294 772.28318 0 -1.38978 7.02033 0.10743 0.82655 -14.72351 21.39959 17.69534 52.26483 -38.82697 60.94514 125.63113 55.89081 29.9991 -6.91478 -0.21306 27.63123 57.81078 66.81905 -76.17825 -21.96648 2.81748 23.48722 5.89565 22.81032 -28.25927 8.58172 1.62909 4.41707 -13.48708 -9.7781 -15.79226 -19.63574 13.96813 0.24053 -1.82015
2.1892 0.57108 0.50337 773.93372 0 -2.03049 7.63441 0.52957 0.2883 -15.00875 21.18567 17.21466 53.88231 -38.77252 60.96765 125.75053 57.02108 30.43077 -6.68734 -0.36937 27.83198 58.69975 66.29136 -76.03386 -21.95588 2.80195 22.39062 6.50844 22.08963 -28.89494 8.23587 1.15233 3.87937 -13.5725 -8.77622 -16.13409 -21.66541 13.43668 -0.06055 -2.48227
2.19809 0.5723 0.49338 775.87638 0 -2.8321 8.28102 1.04452 -0.39377 -15.30459 20.8712 16.52639 56.40682 -38.62105 60.97116 125.85554 58.12012 31.01268 -6.47298 -0.26122 28.66066 59.63668 65.40103 -75.59227 -22.29966 2.75868 21.00378 7.02089 20.95975 -29.06241 8.09674 0.2758 2.88674 -13.35774 -7.59026 -16.53698 -24.19509 12.60482 -0.27817 -3.18178
2.20699 0.57322 0.48363 777.7088 0 -3.56604 8.89541 1.5126 -1.01114 -15.57093 20.60898 15.92596 58.41806 -38.5191 60.99992 125.98134 59.16393 31.31706 -6.32052 -0.26245 29.22894 60.50759 64.68146 -75.28477 -22.48699 2.7274 19.72437 7.58896 19.99341 -29.39707 7.85727 -0.399 2.11423 -13.22678 -6.46523 -16.86891 -26.55569 11.8701 -0.52639 -3.87597
2.21605 0.57424 0.47367 779.44348 0 -4.28134 9.58914 2.00193 -1.63074 -15.94578 20.31667 15.348 60.85218 -38.38858 60.96891 126.0545 60.47554 32.44757 -5.90866 -0.3266 29.69421 61.5902 63.93621 -74.97667 -22.6474 2.69773 18.5457 8.12684 19.13211 -29.95845 7.62658 -1.16091 1.27328 -13.31991 -5.42762 -17.3721 -28.6762 11.29313 -0.80938 -4.53356
2.22473 0.57519 0.46405 781.44997 0 -5.07041 10.12197 2.46881 -2.27324 -16.09705 20.05922 14.67633 62.62114 -38.29471 61.05039 126.22871 61.27592 31.91823 -6.0169 -0.18457 30.52206 62.22695 63.16229 -74.59735 -22.94946 2.65797 17.09346 8.69751 17.94085 -29.9308 7.43578 -1.83042 0.48306 -12.87203 -4.17203 -17.54003 -31.41214 10.32433 -0.99731 -5.26128
2.2325 0.57593 0.45542 784.16153 0 -6.04161 10.21649 2.84602 -3.00076 -15.60793 19.98018 13.79128 62.3431 -38.34856 61.48922 126.71299 60.11097 26.73339 -7.72142 0.39366 32.20124 61.69977 62.35141 -74.13983 -23.57362 2.60375 14.90573 9.40253 16.07099 -28.29776 7.27952 -2.21238 -0.20816 -11.03149 -2.30553 -16.73281 -35.73563 8.29052 -0.95993 -6.30007
2.23987 0.57656 0.44716 787.13168 0 -7.07655 10.14459 3.19745 -3.73511 -14.89579 19.92836 12.82128 61.36083 -38.43828 62.03227 127.29319 58.52338 19.8909 -9.91911 1.1855 34.22326 60.70287 61.53238 -73.61376 -24.32575 2.53933 12.46261 10.13855 13.86516 -26.09992 7.16349 -2.47866 -0.81068 -8.65242 -0.23814 -15.59278 -40.65423 5.88605 -0.82653 -7.38557
2.24735 0.57716 0.43875 789.96814 0 -8.07188 10.13928 3.56454 -4.4299 -14.29902 19.82971 11.89363 60.69672 -38.49933 62.50021 127.81127 57.50693 13.83341 -11.77908 1.92482 36.08478 59.86949 60.74699 -73.09019 -25.00944 2.47548 10.1687 10.84679 11.71813 -24.21509 7.04735 -2.75184 -1.34604 -6.50091 1.70338 -14.62995 -45.29866 3.68585 -0.7255 -8.36496
2.25514 0.57808 0.43022 792.88615 0 -9.12299 10.17392 3.92099 -5.28636 -13.64598 19.88001 10.94054 60.08066 -38.61417 63.08832 128.40895 54.93216 7.63113 -14.10931 2.4813 37.98554 59.2578 59.82246 -72.67655 -25.75018 2.42782 7.72192 11.61117 9.92625 -22.07473 6.86022 -3.22002 -2.32502 -4.40869 3.80379 -13.56313 -49.99475 1.31438 -0.66829 -9.699
2.26218 0.57832 0.42204 795.68792 0 -10.06446 10.08469 4.28883 -5.80237 -13.05395 19.61893 10.02588 59.17473 -38.62041 63.44661 128.86152 55.44957 1.35426 -15.58953 3.47064 39.88099 58.06102 59.19069 -72.02221 -26.39609 2.34436 5.54023 12.26518 7.35397 -20.34111 6.82939 -3.26409 -2.38556 -2.07249 5.61047 -12.62861 -54.69488 -0.77252 -0.49918 -10.31125
2.26737 0.57657 0.41467 798.13768 0 -10.74179 9.69949 4.7228 -5.40544 -12.712 18.57089 9.21435 57.73419 -38.37473 63.18481 128.91034 65.06754 -4.88529 -14.49165 5.56261 41.64591 55.46014 59.36799 -70.71675 -26.76379 2.16504 4.12332 12.62407 2.4208 -19.84519 7.20528 -2.03683 0.35148 0.83249 6.62493 -12.17909 -59.45069 -2.08533 -0.03523 -8.86371
2.2718 0.57416 0.40763 800.45344 0 -11.29539 9.19421 5.16314 -4.65961 -12.43474 17.19608 8.44982 56.00853 -38.0096 62.68198 128.80699 77.72519 -11.11202 -12.54089 8.08908 43.39519 52.27068 59.84112 -69.17417 -27.02763 1.95021 2.98854 12.8678 -3.23042 -19.78379 7.73761 -0.40848 3.9603 3.95643 7.32331 -11.86671 -64.14818 -3.07967 0.53601 -6.69795
2.27651 0.57211 0.40046 802.80869 0 -11.86959 8.74013 5.58173 -4.05381 -12.10912 15.91684 7.68055 54.34204 -37.66101 62.26175 128.75881 88.69218 -17.23997 -11.05397 10.44187 45.17107 49.284 60.18292 -67.743 -27.3268 1.7513 1.74609 13.15379 -8.36171 -19.54242 8.20881 0.95364 6.98516 6.96285 8.12071 -11.4662 -68.74998 -4.14941 1.05137 -4.89749
2.28151 0.56979 0.39323 805.266 0 -12.59756 8.29434 6.0799 -3.52631 -11.85278 14.85426 6.83845 52.9311 -37.46818 61.95375 128.7692 100.95532 -23.87123 -9.26614 12.70197 46.88231 46.54435 60.51571 -66.29128 -27.67864 1.55242 0.40963 13.48447 -14.32185 -19.21109 8.64475 2.67289 10.80094 10.0703 9.11322 -11.16325 -73.90438 -5.51944 1.59956 -2.93581
2.28572 0.56788 0.3862 807.4724 0 -12.97374 7.80516 6.41312 -2.75308 -11.47416 13.27214 6.15979 50.95146 -36.92809 61.3598 128.62498 111.23954 -29.42461 -7.89138 15.25535 48.7133 43.16879 60.93186 -64.83021 -27.89708 1.34584 -0.66293 13.69291 -18.72234 -19.17285 9.18411 3.74343 13.18107 13.00474 9.6222 -10.69375 -77.86652 -6.19048 2.10437 -1.13705
2.28801 0.56724 0.37968 809.04274 0 -12.41921 7.22476 6.29787 -1.38413 -10.71089 10.25275 5.92736 47.2811 -35.40686 59.9796 128.04896 115.374 -32.03759 -7.90457 18.50972 50.93311 38.08075 61.55748 -63.37626 -27.74805 1.12149 -1.05452 13.60356 -18.63391 -19.88314 10.02806 2.91446 11.33606 15.46641 8.86717 -9.73387 -78.71012 -4.94655 2.45515 0.02001
2.28952 0.56705 0.37334 810.35888 0 -11.51301 6.60612 6.01492 0.21896 -9.82936 6.73761 5.85755 43.08645 -33.54986 58.32983 127.32952 117.40404 -33.55151 -8.35349 22.04167 53.26208 32.39648 62.24815 -61.92738 -27.47211 0.89183 -1.19312 13.39269 -16.95231 -20.86776 10.96035 1.4216 8.02686 17.73087 7.63697 -8.60254 -78.32068 -3.02007 2.75908 0.99027
2.29134 0.56669 0.36692 811.77498 0 -10.76016 6.00594 5.80319 1.71413 -9.02341 3.50286 5.70887 39.2609 -31.87996 56.83938 126.70343 120.36033 -35.53905 -8.57469 25.44953 55.50359 27.05058 62.87405 -60.49149 -27.26981 0.66783 -1.45992 13.22988 -16.00048 -21.69985 11.81369 0.23684 5.41592 20.04685 6.62681 -7.54961 -78.39116 -1.44521 3.08981 2.05851
